<mxfile host="app.diagrams.net" modified="2024-02-15T13:21:51.394Z" agent="Mozilla/5.0 (X11; Linux x86_64; rv:122.0) Gecko/20100101 Firefox/122.0" etag="Qr8qfUl4CXc3T7Y5Opeu" version="23.1.1" type="device">
  <diagram id="C5RBs43oDa-KdzZeNtuy" name="Page-1">
    <mxGraphModel dx="2741" dy="1192" grid="1" gridSize="10" guides="1" tooltips="1" connect="1" arrows="1" fold="1" page="1" pageScale="1" pageWidth="827" pageHeight="1169" math="0" shadow="0">
      <root>
        <mxCell id="WIyWlLk6GJQsqaUBKTNV-0" />
        <mxCell id="WIyWlLk6GJQsqaUBKTNV-1" parent="WIyWlLk6GJQsqaUBKTNV-0" />
        <mxCell id="3hMFE_3aVcJf9ZVtRdxG-9" value="&lt;div&gt;CarController&lt;/div&gt;" style="swimlane;fontStyle=1;align=center;verticalAlign=top;childLayout=stackLayout;horizontal=1;startSize=26;horizontalStack=0;resizeParent=1;resizeParentMax=0;resizeLast=0;collapsible=1;marginBottom=0;whiteSpace=wrap;html=1;" parent="WIyWlLk6GJQsqaUBKTNV-1" vertex="1">
          <mxGeometry x="40" y="270" width="250" height="250" as="geometry">
            <mxRectangle x="110" y="280" width="120" height="30" as="alternateBounds" />
          </mxGeometry>
        </mxCell>
        <mxCell id="3hMFE_3aVcJf9ZVtRdxG-10" value="&lt;div&gt;frame : CarView&lt;/div&gt;&lt;div&gt;timer : Timer&lt;/div&gt;&lt;div&gt;cars : ArrayList&amp;lt;GroundVehicle&amp;gt;&lt;/div&gt;&lt;div&gt;workshop : GraphicalVolvoWorkshop&lt;br&gt;&lt;/div&gt;" style="text;strokeColor=none;fillColor=none;align=left;verticalAlign=top;spacingLeft=4;spacingRight=4;overflow=hidden;rotatable=0;points=[[0,0.5],[1,0.5]];portConstraint=eastwest;whiteSpace=wrap;html=1;" parent="3hMFE_3aVcJf9ZVtRdxG-9" vertex="1">
          <mxGeometry y="26" width="250" height="74" as="geometry" />
        </mxCell>
        <mxCell id="3hMFE_3aVcJf9ZVtRdxG-11" value="" style="line;strokeWidth=1;fillColor=none;align=left;verticalAlign=middle;spacingTop=-1;spacingLeft=3;spacingRight=3;rotatable=0;labelPosition=right;points=[];portConstraint=eastwest;strokeColor=inherit;" parent="3hMFE_3aVcJf9ZVtRdxG-9" vertex="1">
          <mxGeometry y="100" width="250" height="8" as="geometry" />
        </mxCell>
        <mxCell id="3hMFE_3aVcJf9ZVtRdxG-12" value="&lt;div&gt;+ main(String[] args) : void&lt;/div&gt;&lt;div&gt;- initWorkshop(int, int, int, String) : void&lt;/div&gt;&lt;div&gt;- moveCar(GroundVehicle) : void&lt;br&gt;&lt;/div&gt;&lt;div&gt;- workshopInteraction(GroundVehicle) : void&lt;/div&gt;&lt;div&gt;- updateVisuals(int, groundVehicles): void&lt;/div&gt;&lt;div&gt;+ getWorkshopX() : int&lt;/div&gt;&lt;div&gt;+ getWorkshopY() : int&lt;/div&gt;&lt;div&gt;+ getWorkshopImagePath() : String&lt;br&gt;&lt;/div&gt;" style="text;strokeColor=none;fillColor=none;align=left;verticalAlign=top;spacingLeft=4;spacingRight=4;overflow=hidden;rotatable=0;points=[[0,0.5],[1,0.5]];portConstraint=eastwest;whiteSpace=wrap;html=1;" parent="3hMFE_3aVcJf9ZVtRdxG-9" vertex="1">
          <mxGeometry y="108" width="250" height="142" as="geometry" />
        </mxCell>
        <mxCell id="3hMFE_3aVcJf9ZVtRdxG-89" value="1" style="endArrow=open;html=1;endSize=12;startArrow=diamondThin;startSize=14;startFill=1;edgeStyle=orthogonalEdgeStyle;align=left;verticalAlign=bottom;rounded=0;exitX=-0.025;exitY=0.269;exitDx=0;exitDy=0;exitPerimeter=0;fontColor=none;noLabel=1;" parent="3hMFE_3aVcJf9ZVtRdxG-9" source="3hMFE_3aVcJf9ZVtRdxG-10" target="3hMFE_3aVcJf9ZVtRdxG-9" edge="1">
          <mxGeometry x="-1" y="3" relative="1" as="geometry">
            <mxPoint x="-100" y="-10" as="sourcePoint" />
            <mxPoint x="60" y="-10" as="targetPoint" />
            <Array as="points">
              <mxPoint x="-10" y="46" />
              <mxPoint x="-10" y="43" />
              <mxPoint x="-40" y="43" />
              <mxPoint x="-40" y="10" />
            </Array>
          </mxGeometry>
        </mxCell>
        <mxCell id="3hMFE_3aVcJf9ZVtRdxG-13" value="CarView" style="swimlane;fontStyle=1;align=center;verticalAlign=top;childLayout=stackLayout;horizontal=1;startSize=26;horizontalStack=0;resizeParent=1;resizeParentMax=0;resizeLast=0;collapsible=1;marginBottom=0;whiteSpace=wrap;html=1;" parent="WIyWlLk6GJQsqaUBKTNV-1" vertex="1">
          <mxGeometry x="334" y="280" width="180" height="330" as="geometry" />
        </mxCell>
        <mxCell id="3hMFE_3aVcJf9ZVtRdxG-14" value="&lt;div&gt;carC : CarController&lt;/div&gt;&lt;div&gt;drawPanel : DrawPanel&lt;/div&gt;&lt;div&gt;controllPanel : JPanel&lt;/div&gt;&lt;div&gt;gasPanel : JPanel&lt;/div&gt;&lt;div&gt;gasSpinner : JSpinner&lt;/div&gt;&lt;div&gt;gasLabel : JLabel&lt;/div&gt;&lt;div&gt;gasAmount : int&lt;/div&gt;&lt;div&gt;gasButton : JButton&lt;/div&gt;&lt;div&gt;brakeButton : JButton&lt;/div&gt;&lt;div&gt;turboOnButton : JButton&lt;/div&gt;&lt;div&gt;turboOffButton : JButton&lt;/div&gt;&lt;div&gt;liftBedButton  : JButton&lt;/div&gt;&lt;div&gt;lowerBedButton : JButton&lt;/div&gt;&lt;div&gt;startButton : JButton&lt;/div&gt;&lt;div&gt;stopButton  : JButton&lt;/div&gt;" style="text;strokeColor=none;fillColor=none;align=left;verticalAlign=top;spacingLeft=4;spacingRight=4;overflow=hidden;rotatable=0;points=[[0,0.5],[1,0.5]];portConstraint=eastwest;whiteSpace=wrap;html=1;" parent="3hMFE_3aVcJf9ZVtRdxG-13" vertex="1">
          <mxGeometry y="26" width="180" height="234" as="geometry" />
        </mxCell>
        <mxCell id="3hMFE_3aVcJf9ZVtRdxG-15" value="" style="line;strokeWidth=1;fillColor=none;align=left;verticalAlign=middle;spacingTop=-1;spacingLeft=3;spacingRight=3;rotatable=0;labelPosition=right;points=[];portConstraint=eastwest;strokeColor=inherit;" parent="3hMFE_3aVcJf9ZVtRdxG-13" vertex="1">
          <mxGeometry y="260" width="180" height="8" as="geometry" />
        </mxCell>
        <mxCell id="3hMFE_3aVcJf9ZVtRdxG-16" value="&lt;div&gt;- initComponents(String) : void&lt;/div&gt;&lt;div&gt;- initDrawPanel() : void&lt;br&gt;&lt;/div&gt;" style="text;strokeColor=none;fillColor=none;align=left;verticalAlign=top;spacingLeft=4;spacingRight=4;overflow=hidden;rotatable=0;points=[[0,0.5],[1,0.5]];portConstraint=eastwest;whiteSpace=wrap;html=1;" parent="3hMFE_3aVcJf9ZVtRdxG-13" vertex="1">
          <mxGeometry y="268" width="180" height="62" as="geometry" />
        </mxCell>
        <mxCell id="3hMFE_3aVcJf9ZVtRdxG-17" value="DrawPanel" style="swimlane;fontStyle=1;align=center;verticalAlign=top;childLayout=stackLayout;horizontal=1;startSize=26;horizontalStack=0;resizeParent=1;resizeParentMax=0;resizeLast=0;collapsible=1;marginBottom=0;whiteSpace=wrap;html=1;" parent="WIyWlLk6GJQsqaUBKTNV-1" vertex="1">
          <mxGeometry x="567" y="280" width="260" height="210" as="geometry" />
        </mxCell>
        <mxCell id="3hMFE_3aVcJf9ZVtRdxG-18" value="&lt;div&gt;carList&lt;/div&gt;&lt;div&gt;imageList&lt;/div&gt;&lt;div&gt;workshop&lt;br&gt;&lt;/div&gt;" style="text;strokeColor=none;fillColor=none;align=left;verticalAlign=top;spacingLeft=4;spacingRight=4;overflow=hidden;rotatable=0;points=[[0,0.5],[1,0.5]];portConstraint=eastwest;whiteSpace=wrap;html=1;" parent="3hMFE_3aVcJf9ZVtRdxG-17" vertex="1">
          <mxGeometry y="26" width="260" height="54" as="geometry" />
        </mxCell>
        <mxCell id="3hMFE_3aVcJf9ZVtRdxG-19" value="" style="line;strokeWidth=1;fillColor=none;align=left;verticalAlign=middle;spacingTop=-1;spacingLeft=3;spacingRight=3;rotatable=0;labelPosition=right;points=[];portConstraint=eastwest;strokeColor=inherit;" parent="3hMFE_3aVcJf9ZVtRdxG-17" vertex="1">
          <mxGeometry y="80" width="260" height="8" as="geometry" />
        </mxCell>
        <mxCell id="3hMFE_3aVcJf9ZVtRdxG-20" value="&lt;div&gt;+ addCar(GroundVehicle) : void&lt;br&gt;&lt;/div&gt;&lt;div&gt;+ addWorkshop(int, int, imagePath) : void&lt;br&gt;&lt;/div&gt;&lt;div&gt;+ removeImage(GroundVehicle) : void&lt;/div&gt;&lt;div&gt;- createNewVisualItem(int, int, String) : void&lt;br&gt;&lt;/div&gt;&lt;div&gt;- drawImage(Graphics, ImagePointPair) : void&lt;br&gt;&lt;/div&gt;" style="text;strokeColor=none;fillColor=none;align=left;verticalAlign=top;spacingLeft=4;spacingRight=4;overflow=hidden;rotatable=0;points=[[0,0.5],[1,0.5]];portConstraint=eastwest;whiteSpace=wrap;html=1;" parent="3hMFE_3aVcJf9ZVtRdxG-17" vertex="1">
          <mxGeometry y="88" width="260" height="122" as="geometry" />
        </mxCell>
        <mxCell id="3hMFE_3aVcJf9ZVtRdxG-29" value="&lt;div&gt;GraphicalVolvoWorkshop&lt;/div&gt;" style="swimlane;fontStyle=1;align=center;verticalAlign=top;childLayout=stackLayout;horizontal=1;startSize=26;horizontalStack=0;resizeParent=1;resizeParentMax=0;resizeLast=0;collapsible=1;marginBottom=0;whiteSpace=wrap;html=1;" parent="WIyWlLk6GJQsqaUBKTNV-1" vertex="1">
          <mxGeometry x="210" y="780" width="260" height="144" as="geometry" />
        </mxCell>
        <mxCell id="3hMFE_3aVcJf9ZVtRdxG-30" value="&lt;div&gt;- workshop : Workshop&amp;lt;IsVolvo&amp;gt;&lt;/div&gt;&lt;div&gt;- x : int&lt;/div&gt;&lt;div&gt;- y : int&lt;/div&gt;&lt;div&gt;- imagePath : String&lt;/div&gt;&lt;div&gt;- size : int&lt;/div&gt;" style="text;strokeColor=none;fillColor=none;align=left;verticalAlign=top;spacingLeft=4;spacingRight=4;overflow=hidden;rotatable=0;points=[[0,0.5],[1,0.5]];portConstraint=eastwest;whiteSpace=wrap;html=1;" parent="3hMFE_3aVcJf9ZVtRdxG-29" vertex="1">
          <mxGeometry y="26" width="260" height="84" as="geometry" />
        </mxCell>
        <mxCell id="3hMFE_3aVcJf9ZVtRdxG-31" value="" style="line;strokeWidth=1;fillColor=none;align=left;verticalAlign=middle;spacingTop=-1;spacingLeft=3;spacingRight=3;rotatable=0;labelPosition=right;points=[];portConstraint=eastwest;strokeColor=inherit;" parent="3hMFE_3aVcJf9ZVtRdxG-29" vertex="1">
          <mxGeometry y="110" width="260" height="8" as="geometry" />
        </mxCell>
        <mxCell id="3hMFE_3aVcJf9ZVtRdxG-32" value="+ getters[X, Y, ImagePath, Size]" style="text;strokeColor=none;fillColor=none;align=left;verticalAlign=top;spacingLeft=4;spacingRight=4;overflow=hidden;rotatable=0;points=[[0,0.5],[1,0.5]];portConstraint=eastwest;whiteSpace=wrap;html=1;" parent="3hMFE_3aVcJf9ZVtRdxG-29" vertex="1">
          <mxGeometry y="118" width="260" height="26" as="geometry" />
        </mxCell>
        <mxCell id="3hMFE_3aVcJf9ZVtRdxG-33" value="" style="endArrow=open;startArrow=circlePlus;endFill=0;startFill=0;endSize=8;html=1;rounded=0;exitX=0.315;exitY=-0.028;exitDx=0;exitDy=0;entryX=0.8;entryY=1;entryDx=0;entryDy=0;entryPerimeter=0;exitPerimeter=0;" parent="WIyWlLk6GJQsqaUBKTNV-1" source="3hMFE_3aVcJf9ZVtRdxG-29" target="3hMFE_3aVcJf9ZVtRdxG-12" edge="1">
          <mxGeometry width="160" relative="1" as="geometry">
            <mxPoint x="320" y="490" as="sourcePoint" />
            <mxPoint x="480" y="490" as="targetPoint" />
            <Array as="points" />
          </mxGeometry>
        </mxCell>
        <mxCell id="3hMFE_3aVcJf9ZVtRdxG-34" value="TimerListener" style="swimlane;fontStyle=1;align=center;verticalAlign=top;childLayout=stackLayout;horizontal=1;startSize=26;horizontalStack=0;resizeParent=1;resizeParentMax=0;resizeLast=0;collapsible=1;marginBottom=0;whiteSpace=wrap;html=1;" parent="WIyWlLk6GJQsqaUBKTNV-1" vertex="1">
          <mxGeometry x="-60" y="780" width="230" height="60" as="geometry" />
        </mxCell>
        <mxCell id="3hMFE_3aVcJf9ZVtRdxG-36" value="" style="line;strokeWidth=1;fillColor=none;align=left;verticalAlign=middle;spacingTop=-1;spacingLeft=3;spacingRight=3;rotatable=0;labelPosition=right;points=[];portConstraint=eastwest;strokeColor=inherit;" parent="3hMFE_3aVcJf9ZVtRdxG-34" vertex="1">
          <mxGeometry y="26" width="230" height="8" as="geometry" />
        </mxCell>
        <mxCell id="3hMFE_3aVcJf9ZVtRdxG-37" value="+ actionPerformed(ActionEvent) : void" style="text;strokeColor=none;fillColor=none;align=left;verticalAlign=top;spacingLeft=4;spacingRight=4;overflow=hidden;rotatable=0;points=[[0,0.5],[1,0.5]];portConstraint=eastwest;whiteSpace=wrap;html=1;fontSize=12;" parent="3hMFE_3aVcJf9ZVtRdxG-34" vertex="1">
          <mxGeometry y="34" width="230" height="26" as="geometry" />
        </mxCell>
        <mxCell id="3hMFE_3aVcJf9ZVtRdxG-38" value="" style="endArrow=open;startArrow=circlePlus;endFill=0;startFill=0;endSize=8;html=1;rounded=0;exitX=0.661;exitY=-0.017;exitDx=0;exitDy=0;exitPerimeter=0;" parent="WIyWlLk6GJQsqaUBKTNV-1" source="3hMFE_3aVcJf9ZVtRdxG-34" target="3hMFE_3aVcJf9ZVtRdxG-9" edge="1">
          <mxGeometry width="160" relative="1" as="geometry">
            <mxPoint x="320" y="490" as="sourcePoint" />
            <mxPoint x="170" y="370" as="targetPoint" />
            <Array as="points" />
          </mxGeometry>
        </mxCell>
        <mxCell id="3hMFE_3aVcJf9ZVtRdxG-39" value="&lt;div&gt;Workshop&lt;/div&gt;&lt;div&gt;&amp;lt;IsVolvo&amp;gt;&lt;/div&gt;" style="html=1;whiteSpace=wrap;" parent="WIyWlLk6GJQsqaUBKTNV-1" vertex="1">
          <mxGeometry x="300" y="990" width="110" height="50" as="geometry" />
        </mxCell>
        <mxCell id="3hMFE_3aVcJf9ZVtRdxG-40" value="1" style="endArrow=open;html=1;endSize=12;startArrow=diamondThin;startSize=14;startFill=1;edgeStyle=orthogonalEdgeStyle;align=left;verticalAlign=bottom;rounded=0;fontColor=none;noLabel=1;" parent="WIyWlLk6GJQsqaUBKTNV-1" source="3hMFE_3aVcJf9ZVtRdxG-29" target="3hMFE_3aVcJf9ZVtRdxG-39" edge="1">
          <mxGeometry x="-1" y="3" relative="1" as="geometry">
            <mxPoint x="250" y="660" as="sourcePoint" />
            <mxPoint x="410" y="660" as="targetPoint" />
            <Array as="points">
              <mxPoint x="350" y="947" />
              <mxPoint x="355" y="947" />
            </Array>
          </mxGeometry>
        </mxCell>
        <mxCell id="3hMFE_3aVcJf9ZVtRdxG-42" value="1" style="endArrow=open;html=1;endSize=12;startArrow=diamondThin;startSize=14;startFill=1;edgeStyle=orthogonalEdgeStyle;align=left;verticalAlign=bottom;rounded=0;fontColor=none;noLabel=1;labelBackgroundColor=none;" parent="WIyWlLk6GJQsqaUBKTNV-1" source="3hMFE_3aVcJf9ZVtRdxG-9" target="3hMFE_3aVcJf9ZVtRdxG-29" edge="1">
          <mxGeometry x="-1" y="3" relative="1" as="geometry">
            <mxPoint x="190" y="430" as="sourcePoint" />
            <mxPoint x="230" y="570" as="targetPoint" />
            <Array as="points">
              <mxPoint x="220" y="620" />
              <mxPoint x="220" y="620" />
            </Array>
          </mxGeometry>
        </mxCell>
        <mxCell id="3hMFE_3aVcJf9ZVtRdxG-43" value="swing" style="verticalAlign=top;align=left;spacingTop=8;spacingLeft=2;spacingRight=12;shape=cube;size=10;direction=south;fontStyle=4;html=1;whiteSpace=wrap;" parent="WIyWlLk6GJQsqaUBKTNV-1" vertex="1">
          <mxGeometry x="314" y="20" width="180" height="100" as="geometry" />
        </mxCell>
        <mxCell id="3hMFE_3aVcJf9ZVtRdxG-44" value="&lt;div&gt;JButton&lt;/div&gt;&lt;div&gt;JLabel&lt;/div&gt;&lt;div&gt;JSpinner&lt;br&gt;&lt;/div&gt;&lt;div&gt;SpinnerModel&lt;/div&gt;&lt;div&gt;&lt;br&gt;&lt;/div&gt;" style="text;strokeColor=none;fillColor=none;align=left;verticalAlign=top;spacingLeft=4;spacingRight=4;overflow=hidden;rotatable=0;points=[[0,0.5],[1,0.5]];portConstraint=eastwest;whiteSpace=wrap;html=1;" parent="WIyWlLk6GJQsqaUBKTNV-1" vertex="1">
          <mxGeometry x="314" y="50" width="166" height="70" as="geometry" />
        </mxCell>
        <mxCell id="3hMFE_3aVcJf9ZVtRdxG-45" value="1" style="endArrow=open;html=1;endSize=12;startArrow=diamondThin;startSize=14;startFill=1;edgeStyle=orthogonalEdgeStyle;align=left;verticalAlign=bottom;rounded=0;fontColor=none;noLabel=1;" parent="WIyWlLk6GJQsqaUBKTNV-1" source="3hMFE_3aVcJf9ZVtRdxG-13" target="3hMFE_3aVcJf9ZVtRdxG-43" edge="1">
          <mxGeometry x="-1" y="3" relative="1" as="geometry">
            <mxPoint x="390" y="220" as="sourcePoint" />
            <mxPoint x="550" y="220" as="targetPoint" />
            <Array as="points">
              <mxPoint x="380" y="160" />
              <mxPoint x="380" y="160" />
            </Array>
          </mxGeometry>
        </mxCell>
        <mxCell id="3hMFE_3aVcJf9ZVtRdxG-46" value="1" style="endArrow=open;html=1;endSize=12;startArrow=diamondThin;startSize=14;startFill=1;edgeStyle=orthogonalEdgeStyle;align=left;verticalAlign=bottom;rounded=0;fontColor=none;noLabel=1;" parent="WIyWlLk6GJQsqaUBKTNV-1" source="3hMFE_3aVcJf9ZVtRdxG-9" target="3hMFE_3aVcJf9ZVtRdxG-13" edge="1">
          <mxGeometry x="-1" y="3" relative="1" as="geometry">
            <mxPoint x="120" y="230" as="sourcePoint" />
            <mxPoint x="280" y="230" as="targetPoint" />
            <Array as="points">
              <mxPoint x="300" y="340" />
              <mxPoint x="300" y="340" />
            </Array>
          </mxGeometry>
        </mxCell>
        <mxCell id="3hMFE_3aVcJf9ZVtRdxG-47" value="1" style="endArrow=open;html=1;endSize=12;startArrow=diamondThin;startSize=14;startFill=1;edgeStyle=orthogonalEdgeStyle;align=left;verticalAlign=bottom;rounded=0;fontColor=none;noLabel=1;" parent="WIyWlLk6GJQsqaUBKTNV-1" source="3hMFE_3aVcJf9ZVtRdxG-13" target="3hMFE_3aVcJf9ZVtRdxG-9" edge="1">
          <mxGeometry x="-1" y="3" relative="1" as="geometry">
            <mxPoint x="200" y="220" as="sourcePoint" />
            <mxPoint x="360" y="220" as="targetPoint" />
            <Array as="points">
              <mxPoint x="300" y="310" />
              <mxPoint x="300" y="310" />
            </Array>
          </mxGeometry>
        </mxCell>
        <mxCell id="3hMFE_3aVcJf9ZVtRdxG-48" value="Use" style="endArrow=open;endSize=12;dashed=1;html=1;rounded=0;" parent="WIyWlLk6GJQsqaUBKTNV-1" source="3hMFE_3aVcJf9ZVtRdxG-9" target="3hMFE_3aVcJf9ZVtRdxG-17" edge="1">
          <mxGeometry width="160" relative="1" as="geometry">
            <mxPoint x="370" y="410" as="sourcePoint" />
            <mxPoint x="530" y="410" as="targetPoint" />
            <Array as="points">
              <mxPoint x="310" y="540" />
              <mxPoint x="310" y="640" />
              <mxPoint x="540" y="640" />
              <mxPoint x="540" y="400" />
            </Array>
          </mxGeometry>
        </mxCell>
        <mxCell id="3hMFE_3aVcJf9ZVtRdxG-49" value="awt" style="verticalAlign=top;align=left;spacingTop=8;spacingLeft=2;spacingRight=12;shape=cube;size=10;direction=south;fontStyle=4;html=1;whiteSpace=wrap;" parent="WIyWlLk6GJQsqaUBKTNV-1" vertex="1">
          <mxGeometry x="520" y="20" width="180" height="100" as="geometry" />
        </mxCell>
        <mxCell id="3hMFE_3aVcJf9ZVtRdxG-50" value="&lt;div&gt;Dimension&lt;/div&gt;&lt;div&gt;FlowLayout&lt;br&gt;&lt;/div&gt;" style="text;strokeColor=none;fillColor=none;align=left;verticalAlign=top;spacingLeft=4;spacingRight=4;overflow=hidden;rotatable=0;points=[[0,0.5],[1,0.5]];portConstraint=eastwest;whiteSpace=wrap;html=1;" parent="WIyWlLk6GJQsqaUBKTNV-1" vertex="1">
          <mxGeometry x="520" y="50" width="166" height="70" as="geometry" />
        </mxCell>
        <mxCell id="3hMFE_3aVcJf9ZVtRdxG-52" value="ActionListener" style="html=1;whiteSpace=wrap;" parent="WIyWlLk6GJQsqaUBKTNV-1" vertex="1">
          <mxGeometry y="920" width="110" height="50" as="geometry" />
        </mxCell>
        <mxCell id="3hMFE_3aVcJf9ZVtRdxG-53" value="Use" style="endArrow=open;endSize=12;dashed=1;html=1;rounded=0;" parent="WIyWlLk6GJQsqaUBKTNV-1" source="3hMFE_3aVcJf9ZVtRdxG-34" target="3hMFE_3aVcJf9ZVtRdxG-52" edge="1">
          <mxGeometry width="160" relative="1" as="geometry">
            <mxPoint x="200" y="780" as="sourcePoint" />
            <mxPoint x="360" y="780" as="targetPoint" />
            <Array as="points" />
          </mxGeometry>
        </mxCell>
        <mxCell id="3hMFE_3aVcJf9ZVtRdxG-54" value="&lt;div&gt;GroundVehicle&lt;/div&gt;" style="html=1;whiteSpace=wrap;" parent="WIyWlLk6GJQsqaUBKTNV-1" vertex="1">
          <mxGeometry x="40" y="100" width="110" height="50" as="geometry" />
        </mxCell>
        <mxCell id="3hMFE_3aVcJf9ZVtRdxG-55" value="1" style="endArrow=open;html=1;endSize=12;startArrow=diamondThin;startSize=14;startFill=1;edgeStyle=orthogonalEdgeStyle;align=left;verticalAlign=bottom;rounded=0;fontColor=none;noLabel=1;" parent="WIyWlLk6GJQsqaUBKTNV-1" source="3hMFE_3aVcJf9ZVtRdxG-9" target="3hMFE_3aVcJf9ZVtRdxG-54" edge="1">
          <mxGeometry x="-1" y="3" relative="1" as="geometry">
            <mxPoint x="110" y="200" as="sourcePoint" />
            <mxPoint x="270" y="200" as="targetPoint" />
            <Array as="points">
              <mxPoint x="190" y="220" />
              <mxPoint x="95" y="220" />
            </Array>
          </mxGeometry>
        </mxCell>
        <mxCell id="3hMFE_3aVcJf9ZVtRdxG-56" value="Use" style="endArrow=open;endSize=12;dashed=1;html=1;rounded=0;" parent="WIyWlLk6GJQsqaUBKTNV-1" source="3hMFE_3aVcJf9ZVtRdxG-13" target="3hMFE_3aVcJf9ZVtRdxG-54" edge="1">
          <mxGeometry x="0.4392" width="160" relative="1" as="geometry">
            <mxPoint x="230" y="240" as="sourcePoint" />
            <mxPoint x="390" y="240" as="targetPoint" />
            <Array as="points">
              <mxPoint x="220" y="160" />
            </Array>
            <mxPoint as="offset" />
          </mxGeometry>
        </mxCell>
        <mxCell id="3hMFE_3aVcJf9ZVtRdxG-57" value="1" style="endArrow=open;html=1;endSize=12;startArrow=diamondThin;startSize=14;startFill=1;edgeStyle=orthogonalEdgeStyle;align=left;verticalAlign=bottom;rounded=0;fontColor=none;noLabel=1;" parent="WIyWlLk6GJQsqaUBKTNV-1" source="3hMFE_3aVcJf9ZVtRdxG-17" target="3hMFE_3aVcJf9ZVtRdxG-54" edge="1">
          <mxGeometry x="-1" y="3" relative="1" as="geometry">
            <mxPoint x="574" y="223" as="sourcePoint" />
            <mxPoint x="95" y="50" as="targetPoint" />
            <Array as="points">
              <mxPoint x="642" y="220" />
              <mxPoint x="95" y="220" />
            </Array>
          </mxGeometry>
        </mxCell>
        <mxCell id="3hMFE_3aVcJf9ZVtRdxG-58" value="Use" style="endArrow=open;endSize=12;dashed=1;html=1;rounded=0;" parent="WIyWlLk6GJQsqaUBKTNV-1" source="3hMFE_3aVcJf9ZVtRdxG-13" target="3hMFE_3aVcJf9ZVtRdxG-49" edge="1">
          <mxGeometry width="160" relative="1" as="geometry">
            <mxPoint x="430" y="180" as="sourcePoint" />
            <mxPoint x="590" y="180" as="targetPoint" />
            <Array as="points">
              <mxPoint x="430" y="170" />
            </Array>
          </mxGeometry>
        </mxCell>
        <mxCell id="3hMFE_3aVcJf9ZVtRdxG-59" value="1" style="endArrow=open;html=1;endSize=12;startArrow=diamondThin;startSize=14;startFill=1;edgeStyle=orthogonalEdgeStyle;align=left;verticalAlign=bottom;rounded=0;fontColor=none;noLabel=1;" parent="WIyWlLk6GJQsqaUBKTNV-1" source="3hMFE_3aVcJf9ZVtRdxG-13" target="3hMFE_3aVcJf9ZVtRdxG-17" edge="1">
          <mxGeometry x="-1" y="3" relative="1" as="geometry">
            <mxPoint x="564" y="260" as="sourcePoint" />
            <mxPoint x="500" y="260" as="targetPoint" />
            <Array as="points">
              <mxPoint x="540" y="320" />
              <mxPoint x="540" y="320" />
            </Array>
          </mxGeometry>
        </mxCell>
        <mxCell id="3hMFE_3aVcJf9ZVtRdxG-61" value="&lt;div&gt;ImagePointPair&lt;/div&gt;" style="swimlane;fontStyle=1;align=center;verticalAlign=top;childLayout=stackLayout;horizontal=1;startSize=26;horizontalStack=0;resizeParent=1;resizeParentMax=0;resizeLast=0;collapsible=1;marginBottom=0;whiteSpace=wrap;html=1;" parent="WIyWlLk6GJQsqaUBKTNV-1" vertex="1">
          <mxGeometry x="617" y="550" width="160" height="94" as="geometry" />
        </mxCell>
        <mxCell id="3hMFE_3aVcJf9ZVtRdxG-62" value="&lt;div&gt;point : Point&lt;/div&gt;&lt;div&gt;image : BufferedImage&lt;br&gt;&lt;/div&gt;" style="text;strokeColor=none;fillColor=none;align=left;verticalAlign=top;spacingLeft=4;spacingRight=4;overflow=hidden;rotatable=0;points=[[0,0.5],[1,0.5]];portConstraint=eastwest;whiteSpace=wrap;html=1;" parent="3hMFE_3aVcJf9ZVtRdxG-61" vertex="1">
          <mxGeometry y="26" width="160" height="34" as="geometry" />
        </mxCell>
        <mxCell id="3hMFE_3aVcJf9ZVtRdxG-63" value="" style="line;strokeWidth=1;fillColor=none;align=left;verticalAlign=middle;spacingTop=-1;spacingLeft=3;spacingRight=3;rotatable=0;labelPosition=right;points=[];portConstraint=eastwest;strokeColor=inherit;" parent="3hMFE_3aVcJf9ZVtRdxG-61" vertex="1">
          <mxGeometry y="60" width="160" height="8" as="geometry" />
        </mxCell>
        <mxCell id="3hMFE_3aVcJf9ZVtRdxG-64" value="getters [point, image]" style="text;strokeColor=none;fillColor=none;align=left;verticalAlign=top;spacingLeft=4;spacingRight=4;overflow=hidden;rotatable=0;points=[[0,0.5],[1,0.5]];portConstraint=eastwest;whiteSpace=wrap;html=1;" parent="3hMFE_3aVcJf9ZVtRdxG-61" vertex="1">
          <mxGeometry y="68" width="160" height="26" as="geometry" />
        </mxCell>
        <mxCell id="3hMFE_3aVcJf9ZVtRdxG-65" value="" style="endArrow=open;startArrow=circlePlus;endFill=0;startFill=0;endSize=8;html=1;rounded=0;" parent="WIyWlLk6GJQsqaUBKTNV-1" source="3hMFE_3aVcJf9ZVtRdxG-61" target="3hMFE_3aVcJf9ZVtRdxG-17" edge="1">
          <mxGeometry width="160" relative="1" as="geometry">
            <mxPoint x="590" y="410" as="sourcePoint" />
            <mxPoint x="750" y="410" as="targetPoint" />
          </mxGeometry>
        </mxCell>
        <mxCell id="3hMFE_3aVcJf9ZVtRdxG-71" value="Use" style="endArrow=open;endSize=12;dashed=1;html=1;rounded=0;exitX=0.881;exitY=-0.047;exitDx=0;exitDy=0;exitPerimeter=0;" parent="WIyWlLk6GJQsqaUBKTNV-1" source="3hMFE_3aVcJf9ZVtRdxG-17" target="3hMFE_3aVcJf9ZVtRdxG-72" edge="1">
          <mxGeometry x="-0.0165" y="2" width="160" relative="1" as="geometry">
            <mxPoint x="640" y="160" as="sourcePoint" />
            <mxPoint x="724.5254237288136" y="104" as="targetPoint" />
            <Array as="points">
              <mxPoint x="810" y="200" />
            </Array>
            <mxPoint as="offset" />
          </mxGeometry>
        </mxCell>
        <mxCell id="3hMFE_3aVcJf9ZVtRdxG-72" value="&lt;div&gt;Graphics&lt;/div&gt;" style="html=1;whiteSpace=wrap;" parent="WIyWlLk6GJQsqaUBKTNV-1" vertex="1">
          <mxGeometry x="850" y="130" width="110" height="50" as="geometry" />
        </mxCell>
        <mxCell id="3hMFE_3aVcJf9ZVtRdxG-73" value="&lt;div&gt;Point&lt;/div&gt;" style="html=1;whiteSpace=wrap;" parent="WIyWlLk6GJQsqaUBKTNV-1" vertex="1">
          <mxGeometry x="900" y="390" width="110" height="50" as="geometry" />
        </mxCell>
        <mxCell id="3hMFE_3aVcJf9ZVtRdxG-74" value="Color" style="html=1;whiteSpace=wrap;" parent="WIyWlLk6GJQsqaUBKTNV-1" vertex="1">
          <mxGeometry x="840" y="190" width="110" height="50" as="geometry" />
        </mxCell>
        <mxCell id="3hMFE_3aVcJf9ZVtRdxG-76" value="BufferedImage" style="html=1;whiteSpace=wrap;" parent="WIyWlLk6GJQsqaUBKTNV-1" vertex="1">
          <mxGeometry x="1020" y="390" width="110" height="50" as="geometry" />
        </mxCell>
        <mxCell id="3hMFE_3aVcJf9ZVtRdxG-77" value="Use" style="endArrow=open;endSize=12;dashed=1;html=1;rounded=0;" parent="WIyWlLk6GJQsqaUBKTNV-1" source="3hMFE_3aVcJf9ZVtRdxG-17" target="3hMFE_3aVcJf9ZVtRdxG-74" edge="1">
          <mxGeometry width="160" relative="1" as="geometry">
            <mxPoint x="570" y="150" as="sourcePoint" />
            <mxPoint x="730" y="150" as="targetPoint" />
            <Array as="points" />
          </mxGeometry>
        </mxCell>
        <mxCell id="3hMFE_3aVcJf9ZVtRdxG-78" value="Use" style="endArrow=open;endSize=12;dashed=1;html=1;rounded=0;" parent="WIyWlLk6GJQsqaUBKTNV-1" source="3hMFE_3aVcJf9ZVtRdxG-17" target="3hMFE_3aVcJf9ZVtRdxG-73" edge="1">
          <mxGeometry width="160" relative="1" as="geometry">
            <mxPoint x="530" y="190" as="sourcePoint" />
            <mxPoint x="690" y="190" as="targetPoint" />
            <Array as="points" />
          </mxGeometry>
        </mxCell>
        <mxCell id="3hMFE_3aVcJf9ZVtRdxG-79" value="Use" style="endArrow=open;endSize=12;dashed=1;html=1;rounded=0;" parent="WIyWlLk6GJQsqaUBKTNV-1" source="3hMFE_3aVcJf9ZVtRdxG-17" target="3hMFE_3aVcJf9ZVtRdxG-76" edge="1">
          <mxGeometry width="160" relative="1" as="geometry">
            <mxPoint x="700" y="250" as="sourcePoint" />
            <mxPoint x="860" y="250" as="targetPoint" />
            <Array as="points">
              <mxPoint x="980" y="350" />
            </Array>
          </mxGeometry>
        </mxCell>
        <mxCell id="3hMFE_3aVcJf9ZVtRdxG-81" value="1" style="endArrow=open;html=1;endSize=12;startArrow=diamondThin;startSize=14;startFill=1;edgeStyle=orthogonalEdgeStyle;align=left;verticalAlign=bottom;rounded=0;fontColor=none;noLabel=1;" parent="WIyWlLk6GJQsqaUBKTNV-1" source="3hMFE_3aVcJf9ZVtRdxG-61" target="3hMFE_3aVcJf9ZVtRdxG-73" edge="1">
          <mxGeometry x="-1" y="3" relative="1" as="geometry">
            <mxPoint x="760" y="490" as="sourcePoint" />
            <mxPoint x="920" y="490" as="targetPoint" />
          </mxGeometry>
        </mxCell>
        <mxCell id="3hMFE_3aVcJf9ZVtRdxG-82" value="1" style="endArrow=open;html=1;endSize=12;startArrow=diamondThin;startSize=14;startFill=1;edgeStyle=orthogonalEdgeStyle;align=left;verticalAlign=bottom;rounded=0;fontColor=none;noLabel=1;" parent="WIyWlLk6GJQsqaUBKTNV-1" source="3hMFE_3aVcJf9ZVtRdxG-61" target="3hMFE_3aVcJf9ZVtRdxG-76" edge="1">
          <mxGeometry x="-1" y="3" relative="1" as="geometry">
            <mxPoint x="860" y="540" as="sourcePoint" />
            <mxPoint x="1020" y="540" as="targetPoint" />
          </mxGeometry>
        </mxCell>
        <mxCell id="3hMFE_3aVcJf9ZVtRdxG-83" value="Timer" style="html=1;whiteSpace=wrap;" parent="WIyWlLk6GJQsqaUBKTNV-1" vertex="1">
          <mxGeometry x="-80" y="190" width="110" height="50" as="geometry" />
        </mxCell>
        <mxCell id="3hMFE_3aVcJf9ZVtRdxG-84" value="1" style="endArrow=open;html=1;endSize=12;startArrow=diamondThin;startSize=14;startFill=1;edgeStyle=orthogonalEdgeStyle;align=left;verticalAlign=bottom;rounded=0;fontColor=none;noLabel=1;" parent="WIyWlLk6GJQsqaUBKTNV-1" source="3hMFE_3aVcJf9ZVtRdxG-9" target="3hMFE_3aVcJf9ZVtRdxG-83" edge="1">
          <mxGeometry x="-1" y="3" relative="1" as="geometry">
            <mxPoint x="30" y="190" as="sourcePoint" />
            <mxPoint x="190" y="190" as="targetPoint" />
            <Array as="points">
              <mxPoint x="160" y="240" />
            </Array>
          </mxGeometry>
        </mxCell>
        <mxCell id="3hMFE_3aVcJf9ZVtRdxG-88" value="1" style="endArrow=open;html=1;endSize=12;startArrow=diamondThin;startSize=14;startFill=1;edgeStyle=orthogonalEdgeStyle;align=left;verticalAlign=bottom;rounded=0;fontColor=none;noLabel=1;" parent="WIyWlLk6GJQsqaUBKTNV-1" source="3hMFE_3aVcJf9ZVtRdxG-83" target="3hMFE_3aVcJf9ZVtRdxG-34" edge="1">
          <mxGeometry x="-1" y="3" relative="1" as="geometry">
            <mxPoint x="-100" y="243" as="sourcePoint" />
            <mxPoint x="20" y="783" as="targetPoint" />
            <Array as="points">
              <mxPoint x="-40" y="300" />
              <mxPoint x="-40" y="300" />
            </Array>
          </mxGeometry>
        </mxCell>
        <mxCell id="3hMFE_3aVcJf9ZVtRdxG-91" value="Use" style="endArrow=open;endSize=12;dashed=1;html=1;rounded=0;entryX=0.25;entryY=1;entryDx=0;entryDy=0;exitX=0.25;exitY=0;exitDx=0;exitDy=0;" parent="WIyWlLk6GJQsqaUBKTNV-1" source="3hMFE_3aVcJf9ZVtRdxG-34" target="3hMFE_3aVcJf9ZVtRdxG-54" edge="1">
          <mxGeometry x="-0.3172" y="-1" width="160" relative="1" as="geometry">
            <mxPoint x="10" y="390" as="sourcePoint" />
            <mxPoint x="170" y="390" as="targetPoint" />
            <Array as="points">
              <mxPoint x="-10" y="260" />
              <mxPoint x="68" y="260" />
            </Array>
            <mxPoint as="offset" />
          </mxGeometry>
        </mxCell>
        <mxCell id="3hMFE_3aVcJf9ZVtRdxG-102" value="JFrame" style="swimlane;fontStyle=1;align=center;verticalAlign=top;childLayout=stackLayout;horizontal=1;startSize=26;horizontalStack=0;resizeParent=1;resizeParentMax=0;resizeLast=0;collapsible=1;marginBottom=0;whiteSpace=wrap;html=1;" parent="WIyWlLk6GJQsqaUBKTNV-1" vertex="1">
          <mxGeometry x="140" width="160" height="34" as="geometry" />
        </mxCell>
        <mxCell id="3hMFE_3aVcJf9ZVtRdxG-104" value="" style="line;strokeWidth=1;fillColor=none;align=left;verticalAlign=middle;spacingTop=-1;spacingLeft=3;spacingRight=3;rotatable=0;labelPosition=right;points=[];portConstraint=eastwest;strokeColor=inherit;" parent="3hMFE_3aVcJf9ZVtRdxG-102" vertex="1">
          <mxGeometry y="26" width="160" height="8" as="geometry" />
        </mxCell>
        <mxCell id="3hMFE_3aVcJf9ZVtRdxG-106" value="Extends" style="endArrow=block;endSize=16;endFill=0;html=1;rounded=0;" parent="WIyWlLk6GJQsqaUBKTNV-1" source="3hMFE_3aVcJf9ZVtRdxG-13" target="3hMFE_3aVcJf9ZVtRdxG-102" edge="1">
          <mxGeometry width="160" relative="1" as="geometry">
            <mxPoint x="120" y="60" as="sourcePoint" />
            <mxPoint x="280" y="60" as="targetPoint" />
            <Array as="points">
              <mxPoint x="220" y="90" />
            </Array>
          </mxGeometry>
        </mxCell>
        <mxCell id="3hMFE_3aVcJf9ZVtRdxG-107" value="JPanel" style="swimlane;fontStyle=1;align=center;verticalAlign=top;childLayout=stackLayout;horizontal=1;startSize=26;horizontalStack=0;resizeParent=1;resizeParentMax=0;resizeLast=0;collapsible=1;marginBottom=0;whiteSpace=wrap;html=1;" parent="WIyWlLk6GJQsqaUBKTNV-1" vertex="1">
          <mxGeometry x="710" y="40" width="160" height="34" as="geometry" />
        </mxCell>
        <mxCell id="3hMFE_3aVcJf9ZVtRdxG-108" value="" style="line;strokeWidth=1;fillColor=none;align=left;verticalAlign=middle;spacingTop=-1;spacingLeft=3;spacingRight=3;rotatable=0;labelPosition=right;points=[];portConstraint=eastwest;strokeColor=inherit;" parent="3hMFE_3aVcJf9ZVtRdxG-107" vertex="1">
          <mxGeometry y="26" width="160" height="8" as="geometry" />
        </mxCell>
        <mxCell id="3hMFE_3aVcJf9ZVtRdxG-109" value="Extends" style="endArrow=block;endSize=16;endFill=0;html=1;rounded=0;" parent="WIyWlLk6GJQsqaUBKTNV-1" source="3hMFE_3aVcJf9ZVtRdxG-17" target="3hMFE_3aVcJf9ZVtRdxG-107" edge="1">
          <mxGeometry x="0.1486" y="-2" width="160" relative="1" as="geometry">
            <mxPoint x="580" y="150" as="sourcePoint" />
            <mxPoint x="740" y="150" as="targetPoint" />
            <Array as="points">
              <mxPoint x="760" y="160" />
            </Array>
            <mxPoint as="offset" />
          </mxGeometry>
        </mxCell>
        <mxCell id="3hMFE_3aVcJf9ZVtRdxG-110" value="1" style="endArrow=open;html=1;endSize=12;startArrow=diamondThin;startSize=14;startFill=1;edgeStyle=orthogonalEdgeStyle;align=left;verticalAlign=bottom;rounded=0;fontColor=none;noLabel=1;" parent="WIyWlLk6GJQsqaUBKTNV-1" source="3hMFE_3aVcJf9ZVtRdxG-13" target="3hMFE_3aVcJf9ZVtRdxG-107" edge="1">
          <mxGeometry x="-1" y="3" relative="1" as="geometry">
            <mxPoint x="550" y="310" as="sourcePoint" />
            <mxPoint x="550" y="150" as="targetPoint" />
            <Array as="points">
              <mxPoint x="470" y="170" />
              <mxPoint x="730" y="170" />
            </Array>
          </mxGeometry>
        </mxCell>
      </root>
    </mxGraphModel>
  </diagram>
</mxfile>
